<svg width="30" height="48" viewBox="0 0 30 48" fill="none" xmlns="http://www.w3.org/2000/svg"><path d="M30 15c0-3.988-1.54-7.75-4.396-10.604A14.988 14.988 0 0 0 15 0C11.012 0 7.25 1.54 4.396 4.396A14.988 14.988 0 0 0 0 15c0 3.988 1.54 7.75 4.396 10.604a15.017 15.017 0 0 0 8.52 4.26V45.77c0 .318.045.635.18.907.137.272.318.453.635.589.317.136.725.226 1.269.226.544 0 .952-.09 1.269-.226.317-.136.498-.363.634-.59.136-.271.182-.543.182-.906V29.82a14.879 14.879 0 0 0 8.52-4.26C28.413 22.749 30 18.988 30 15zM15 28.187c-3.535 0-6.843-1.36-9.335-3.852-2.493-2.492-3.852-5.8-3.852-9.335 0-3.535 1.36-6.843 3.852-9.335 2.492-2.493 5.8-3.852 9.335-3.852 3.535 0 6.843 1.36 9.335 3.852 2.493 2.492 3.852 5.8 3.852 9.335 0 3.535-1.36 6.843-3.852 9.335-2.492 2.493-5.8 3.852-9.335 3.852z" fill="#fff"/><path opacity=".33" d="M7.795 8.157c-.363-.498-.725-.997-1.133-1.405-4.532 4.577-4.532 12.01.045 16.587.09.09.136.136.227.18 1.812-2.13 2.719-4.803 2.719-8.111 0-3.036-.635-5.438-1.858-7.25z" fill="#fff"/></svg>