<svg width="39" height="39" viewBox="0 0 39 39" fill="none" xmlns="http://www.w3.org/2000/svg"><path d="M34.18 4.354c-5.805-5.805-15.256-5.805-21.061 0-5.31 5.31-5.76 13.637-1.35 19.487L.563 35.002a2.033 2.033 0 0 0-.495.765c-.09.27-.09.54 0 .855.09.315.36.675.72 1.08.405.406.72.63 1.08.72.315.09.63.09.855 0 .27-.09.495-.27.765-.495l11.206-11.206c2.655 1.98 5.806 3.016 8.956 3.016 3.825 0 7.606-1.44 10.53-4.366 5.806-5.805 5.806-15.211 0-21.017zm-1.26 19.757a13.092 13.092 0 0 1-18.541 0 13.092 13.092 0 0 1 0-18.542c2.565-2.565 5.896-3.825 9.27-3.825 3.376 0 6.706 1.26 9.272 3.825 5.085 5.13 5.085 13.457 0 18.542z" fill="#fff"/><path d="M23.65 23.796a8.887 8.887 0 0 1-6.3-2.61c-3.466-3.466-3.466-9.136 0-12.602a8.887 8.887 0 0 1 6.3-2.61c2.385 0 4.635.945 6.3 2.61 3.466 3.466 3.466 9.136 0 12.602a8.887 8.887 0 0 1-6.3 2.61zm0-17.102a8.14 8.14 0 0 0-5.76 2.385c-3.196 3.196-3.196 8.371 0 11.521a8.14 8.14 0 0 0 5.76 2.386 8.14 8.14 0 0 0 5.76-2.386c3.196-3.195 3.196-8.37 0-11.52a8.14 8.14 0 0 0-5.76-2.386z" fill="#fff"/></svg>