<svg width="40" height="40" viewBox="0 0 40 40" fill="none" xmlns="http://www.w3.org/2000/svg"><path opacity=".25" d="M20 40c11.046 0 20-8.954 20-20S31.046 0 20 0 0 8.954 0 20s8.954 20 20 20z" fill="#ED1E79"/><path opacity=".25" d="M20 31.111c6.137 0 11.111-4.974 11.111-11.111 0-6.136-4.974-11.111-11.111-11.111-6.136 0-11.111 4.975-11.111 11.111 0 6.137 4.975 11.111 11.111 11.111z" fill="#ED1E79"/><path opacity=".25" d="M20 22.222a2.222 2.222 0 1 0 0-4.444 2.222 2.222 0 0 0 0 4.444z" fill="#ED1E79"/></svg>