<svg width="40" height="40" viewBox="0 0 40 40" fill="none" xmlns="http://www.w3.org/2000/svg"><path opacity=".25" d="M40 11.111C40 4.978 35.022 0 28.889 0A11.1 11.1 0 0 0 20 4.444 11.1 11.1 0 0 0 11.111 0C4.978 0 0 4.978 0 11.111 0 24.444 20 40 20 40s20-15.556 20-28.889z" fill="#ED1E79"/><path opacity=".25" d="M33.333 14.067c0-4.09-3.31-7.4-7.4-7.4A7.408 7.408 0 0 0 20 9.622a7.408 7.408 0 0 0-5.933-2.955 7.397 7.397 0 0 0-7.4 7.4C6.667 22.956 20 33.333 20 33.333s13.333-10.377 13.333-19.266z" fill="#ED1E79"/><path opacity=".25" d="M26.667 17.044a3.718 3.718 0 0 0-3.711-3.71c-1.2 0-2.29.577-2.956 1.488a3.724 3.724 0 0 0-2.956-1.489 3.718 3.718 0 0 0-3.71 3.711c0 4.445 6.666 9.623 6.666 9.623s6.667-5.178 6.667-9.623z" fill="#ED1E79"/></svg>