<svg width="40" height="40" viewBox="0 0 40 40" fill="none" xmlns="http://www.w3.org/2000/svg"><path opacity=".25" d="M20 40c11.046 0 20-8.954 20-20S31.046 0 20 0 0 8.954 0 20s8.954 20 20 20z" fill="#ED1E79"/><path opacity=".25" d="M23 32.556l-2.222-2.223a1.1 1.1 0 0 0-1.578 0 1.1 1.1 0 0 0 0 1.578l.311.311C13.001 31.956 7.778 26.578 7.778 20a1.1 1.1 0 0 0-1.111-1.111A1.1 1.1 0 0 0 5.556 20c0 7.822 6.244 14.2 14 14.422l-.334.334a1.1 1.1 0 0 0 0 1.577c.223.223.511.334.778.334s.578-.111.778-.334L23 34.111a1.074 1.074 0 0 0 0-1.555zM17 7.444l2.222 2.223a1.1 1.1 0 0 0 1.578 0 1.1 1.1 0 0 0 0-1.578l-.311-.311C27 8.044 32.222 13.422 32.222 20a1.1 1.1 0 0 0 1.111 1.111A1.1 1.1 0 0 0 34.444 20c0-7.822-6.244-14.2-14-14.422l.334-.334a1.1 1.1 0 0 0 0-1.577A1.117 1.117 0 0 0 20 3.333c-.267 0-.578.111-.778.334L17 5.889a1.074 1.074 0 0 0 0 1.555z" fill="#ED1E79"/><path opacity=".5" d="M20 22.222a2.222 2.222 0 1 0 0-4.444 2.222 2.222 0 0 0 0 4.444z" fill="#ED1E79"/></svg>