<svg width="40" height="40" viewBox="0 0 40 40" fill="none" xmlns="http://www.w3.org/2000/svg"><path opacity=".25" d="M20 0C8.978 0 0 7.67 0 17.143c0 9.494 8.978 17.143 20 17.143a23.23 23.23 0 0 0 4.911-.512L34.29 40V29.127c3.532-3.09 5.71-7.315 5.71-12.006C40 7.67 31.022 0 20 0z" fill="#ED1E79"/><path opacity=".25" d="M20 6.67c-3.756 0-7.222 1.223-9.8 3.424-2.289 1.935-3.533 4.447-3.533 7.049 0 2.601 1.244 5.114 3.533 7.07 2.578 2.202 6.044 3.424 9.8 3.424 1.244 0 2.4-.11 3.467-.355l2.777-.623 1.378.912v-1.468l2.29-2c2.2-1.935 3.421-4.403 3.421-6.983 0-2.6-1.244-5.113-3.533-7.07-2.578-2.157-6.044-3.38-9.8-3.38z" fill="#ED1E79"/><path opacity=".25" d="M25.467 15.142C24.11 13.986 22.156 13.34 20 13.34c-2.156 0-4.111.645-5.467 1.8-.755.646-1.2 1.38-1.2 2.002 0 .622.445 1.356 1.2 2.001 1.356 1.179 3.311 1.801 5.467 1.801 2.155 0 4.111-.645 5.467-1.801.755-.645 1.2-1.378 1.2-2.001 0-.6-.445-1.334-1.2-2.001z" fill="#ED1E79"/></svg>