<svg width="40" height="40" viewBox="0 0 40 40" fill="none" xmlns="http://www.w3.org/2000/svg"><path opacity=".25" d="M40 20L24.444 40V28.889c-13.333 0-20 2.222-20 11.111H0c0-22.222 6.667-28.889 24.444-28.889V0L40 20z" fill="#ED1E79"/><path opacity=".25" d="M31.555 20l-1.733-2.222h-5.378c-7.266 0-11.555 1.178-13.866 3.844-.6.667-1.111 1.49-1.556 2.467 3.756-1.289 8.578-1.867 15.445-1.867h5.377L31.555 20z" fill="#ED1E79"/><path opacity=".25" d="M35.778 20l-8 10.289v-4.734h-3.333c-7.956 0-12.89.778-16.49 2.578-1.71.867-3.11 1.956-4.177 3.29.666-5.579 2.067-9.467 4.289-12 3-3.445 8.066-4.979 16.378-4.979h3.333V9.711l8 10.289z" fill="#ED1E79"/></svg>