<svg width="40" height="40" viewBox="0 0 40 40" fill="none" xmlns="http://www.w3.org/2000/svg"><path opacity=".25" d="M28.889 4.444L24.444 8.89 15.556 0C6.666 6.667 0 13.333 0 22.222 0 33.333 8.956 40 20 40s20-6.667 20-17.778c0-6.666-4.644-12.533-11.111-17.778z" fill="#ED1E79"/><path opacity=".25" d="M28.156 11.845L25.2 14.8l-5.933-5.91c-5.934 4.445-10.378 8.889-10.378 14.822 0 7.4 5.955 11.845 13.333 11.845S35.556 31.11 35.556 23.71c0-4.444-3.09-8.355-7.4-11.866z" fill="#ED1E79"/><path opacity=".25" d="M27.4 19.267l-1.489 1.489-2.956-2.978C20 20 17.779 22.222 17.779 25.178c0 3.71 2.978 5.933 6.666 5.933 3.69 0 6.667-2.222 6.667-5.933 0-2.223-1.556-4.178-3.711-5.911z" fill="#ED1E79"/></svg>