<svg width="20" height="20" viewBox="0 0 20 20" fill="none" xmlns="http://www.w3.org/2000/svg"><path d="M18.171 10c0-1.057.8-1.914 1.829-2.029a10.012 10.012 0 0 0-1.486-3.6c-.8.658-2 .6-2.743-.142a2.057 2.057 0 0 1-.142-2.743A9.807 9.807 0 0 0 12.029 0 2.044 2.044 0 0 1 10 1.829c-1.057 0-1.914-.8-2.029-1.829a9.806 9.806 0 0 0-3.6 1.486c.658.8.6 2-.142 2.743-.743.742-1.943.8-2.743.142A9.806 9.806 0 0 0 0 7.971 2.044 2.044 0 0 1 1.829 10c0 1.057-.8 1.914-1.829 2.029a10.013 10.013 0 0 0 1.486 3.6c.8-.658 2-.6 2.743.142.742.743.8 1.943.142 2.743A10.012 10.012 0 0 0 7.971 20 2.044 2.044 0 0 1 10 18.171c1.057 0 1.914.8 2.029 1.829a10.012 10.012 0 0 0 3.6-1.486c-.658-.8-.6-2 .142-2.743a2.057 2.057 0 0 1 2.743-.142 10.012 10.012 0 0 0 1.486-3.6A2.044 2.044 0 0 1 18.171 10zM10 14c-2.2 0-4-1.8-4-4s1.8-4 4-4 4 1.8 4 4-1.8 4-4 4z" fill="#1B1464"/></svg>