<svg width="300" height="53" viewBox="0 0 300 53" fill="none" xmlns="http://www.w3.org/2000/svg"><path d="M0 1.304h2.017l7.058 23.017 7.058-23.017h1.754l6.97 23.017 7.059-23.017h2.06L25.91 27.652h-1.842L16.966 4.373l-7.058 23.28H8.067L0 1.303zm70.364 0h9.776c5.305 0 7.98 2.411 7.98 7.234 0 1.929-.57 3.551-1.754 4.822-1.184 1.272-2.85 2.017-4.998 2.28l6.751 12.012h-2.06L79.35 15.64h-7.014v12.012H70.32V1.304h.044zm9.6 12.67c1.93 0 3.464-.482 4.56-1.403 1.096-.92 1.622-2.28 1.622-4.033 0-2.017-.526-3.42-1.622-4.296-1.052-.833-2.586-1.272-4.56-1.272h-7.627v10.96h7.628v.044zM94.52 1.304h2.017v12.89l12.889-12.89h2.542l-13.02 13.02L112.8 27.697h-2.586l-13.678-13.24v13.24H94.52V1.304zm77.071 24.419c-1.709-1.666-2.586-4.033-2.586-7.058V1.305h2.016v17.667c0 2.543.746 4.428 2.193 5.655 1.446 1.228 3.463 1.842 5.962 1.842 2.499 0 4.515-.614 5.962-1.842 1.491-1.227 2.192-3.112 2.192-5.655V1.304h2.017v17.361c0 3.025-.877 5.392-2.587 7.058-1.71 1.666-4.252 2.5-7.584 2.5-3.376 0-5.875-.834-7.585-2.5zm23.236-24.419h9.776c5.349 0 7.979 2.411 7.979 7.234 0 1.929-.57 3.551-1.753 4.822-1.184 1.272-2.85 2.017-4.998 2.28l6.751 12.012h-2.06l-6.708-12.012h-6.927v12.012h-2.016V1.304h-.044zm9.601 12.67c1.929 0 3.463-.482 4.559-1.403 1.096-.92 1.622-2.28 1.622-4.033 0-2.017-.526-3.42-1.622-4.296-1.052-.833-2.586-1.272-4.559-1.272h-7.672v10.96h7.672v.044zm18.15 12.538c-2.105-1.14-3.727-2.762-4.91-4.822-1.184-2.06-1.754-4.472-1.754-7.19s.57-5.13 1.754-7.19c1.183-2.104 2.805-3.682 4.91-4.866 2.104-1.14 4.428-1.71 7.058-1.71 3.639 0 6.62 1.009 9.031 2.981v2.017c-2.279-2.104-5.261-3.156-8.899-3.156-2.28 0-4.297.482-6.094 1.49-1.798.965-3.201 2.368-4.253 4.165-1.052 1.797-1.534 3.902-1.534 6.313 0 2.411.526 4.516 1.578 6.313 1.052 1.797 2.455 3.2 4.297 4.165a12.74 12.74 0 0 0 6.049 1.49c1.929 0 3.639-.263 5.13-.789a10.892 10.892 0 0 0 4.121-2.586v2.016c-2.236 2.105-5.349 3.113-9.338 3.113-2.718-.044-5.086-.614-7.146-1.753zM244.63 1.304h2.016v26.348h-2.016V1.304zm7.715 0h1.886l15.738 22.885V1.304h2.017v26.348h-1.841L254.362 4.724v22.928h-2.017V1.304zm31.171 25.208c-2.104-1.14-3.726-2.762-4.91-4.822-1.184-2.06-1.754-4.472-1.754-7.19s.57-5.13 1.754-7.19c1.184-2.104 2.806-3.682 4.91-4.866 2.104-1.14 4.428-1.71 7.058-1.71 3.639 0 6.62.965 8.988 2.938v2.016c-2.192-2.104-5.13-3.112-8.856-3.112-2.28 0-4.297.482-6.094 1.49-1.797.965-3.2 2.368-4.253 4.165-1.052 1.797-1.534 3.902-1.534 6.313 0 2.411.526 4.516 1.578 6.357 1.052 1.797 2.455 3.2 4.253 4.165 1.797.964 3.814 1.447 6.006 1.447 1.534 0 2.893-.176 4.033-.527 1.184-.35 2.28-.92 3.288-1.666v-8.9h-6.093v-1.709H300V25.11c-2.236 2.104-5.392 3.112-9.426 3.112-2.63 0-4.954-.57-7.058-1.71z" fill="#fff"/><path d="M61.026 4.242c-5.656-5.656-14.862-5.656-20.518 0-5.173 5.173-5.611 13.283-1.315 18.982L28.277 34.097a1.98 1.98 0 0 0-.482.745c-.088.263-.088.526 0 .833.087.307.35.658.701 1.052.395.395.702.614 1.052.702.307.087.614.087.833 0 .264-.088.483-.263.746-.483L42.043 26.03c2.587 1.93 5.655 2.938 8.724 2.938a14.4 14.4 0 0 0 10.259-4.253c5.655-5.655 5.655-14.818 0-20.473zm-1.228 19.245a12.754 12.754 0 0 1-18.062 0 12.754 12.754 0 0 1 0-18.062C44.235 2.926 47.48 1.7 50.767 1.7c3.288 0 6.532 1.227 9.031 3.726 4.954 4.998 4.954 13.108 0 18.063z" fill="#ED1E79"/><path d="M50.767 23.18a8.657 8.657 0 0 1-6.137-2.542c-3.376-3.376-3.376-8.9 0-12.275a8.657 8.657 0 0 1 6.137-2.543c2.324 0 4.516.92 6.138 2.543 3.376 3.375 3.376 8.9 0 12.275a8.657 8.657 0 0 1-6.138 2.543zm0-16.659a7.93 7.93 0 0 0-5.611 2.324c-3.113 3.112-3.113 8.154 0 11.223a7.93 7.93 0 0 0 5.611 2.323 7.93 7.93 0 0 0 5.612-2.323c3.113-3.113 3.113-8.154 0-11.223a7.93 7.93 0 0 0-5.612-2.324z" fill="#ED1E79"/><path d="M131.74 14.939c1.973.745 3.42 1.402 4.341 1.885.57.307 1.052.657 1.49 1.052.176-.658.395-1.315.658-1.973-.176-.131-.395-.263-.614-.395-1.008-.57-2.455-1.227-4.34-1.928-1.71-.658-3.025-1.272-3.99-1.842-.964-.57-1.622-1.227-2.06-1.929-.438-.701-.658-1.534-.658-2.542 0-1.447.57-2.63 1.71-3.508 1.14-.877 2.762-1.315 4.823-1.315 2.279 0 4.471.438 6.663 1.315V2.006c-.877-.439-2.148-.79-3.244-.965-1.096-.219-2.28-.307-3.595-.307-1.622 0-3.069.263-4.34.833-1.271.526-2.236 1.315-2.937 2.28-.702 1.008-1.053 2.148-1.053 3.463 0 1.842.57 3.332 1.666 4.472 1.14 1.14 2.982 2.236 5.48 3.157zm5.919 9.864a4.733 4.733 0 0 1-.482.394c-1.184.833-2.938 1.272-5.393 1.272-2.762 0-5.173-.483-7.365-1.403v1.885c.877.395 1.929.701 3.288.964 1.359.22 2.718.351 4.121.351 2.806 0 4.998-.526 6.489-1.578-.22-.658-.483-1.271-.658-1.885z" fill="#fff"/><path d="M165.322 21.164c0-3.858-1.49-7.497-4.252-10.259a14.5 14.5 0 0 0-10.259-4.252c-3.858 0-7.497 1.49-10.259 4.252a14.5 14.5 0 0 0-4.252 10.259c0 3.858 1.49 7.497 4.252 10.259a14.531 14.531 0 0 0 8.242 4.12v15.389c0 .306.044.613.176.876.131.263.307.439.614.57.306.132.701.22 1.227.22.526 0 .921-.088 1.228-.22.306-.131.482-.35.613-.57.132-.263.176-.526.176-.876V35.5a14.397 14.397 0 0 0 8.242-4.121c2.718-2.718 4.252-6.357 4.252-10.215zm-14.511 12.758c-3.419 0-6.62-1.316-9.031-3.727-2.411-2.411-3.727-5.611-3.727-9.031 0-3.42 1.316-6.62 3.727-9.031 2.411-2.411 5.612-3.727 9.031-3.727 3.42 0 6.62 1.316 9.031 3.727 2.411 2.411 3.727 5.611 3.727 9.03 0 3.42-1.316 6.62-3.727 9.032-2.411 2.411-5.611 3.727-9.031 3.727z" fill="#ED1E79"/><path opacity=".33" d="M143.84 14.544c-.35-.482-.701-.964-1.096-1.359-4.384 4.428-4.384 11.618.044 16.046a.784.784 0 0 0 .219.175c1.754-2.06 2.631-4.647 2.631-7.848 0-2.937-.614-5.26-1.798-7.014z" fill="#ED1E79"/></svg>