<svg width="30" height="30" viewBox="0 0 30 30" fill="none" xmlns="http://www.w3.org/2000/svg"><path d="M29.167 0a.836.836 0 0 0-.313.063L20 3.333 11.042.172A3.299 3.299 0 0 0 9.99 0c-.35 0-.698.052-1.032.161l-7.911 2.75A1.68 1.68 0 0 0 0 4.464v24.703a.832.832 0 0 0 1.146.77L10 26.668l8.958 3.161a3.35 3.35 0 0 0 2.084.01l7.911-2.755A1.663 1.663 0 0 0 30 25.537V.832A.831.831 0 0 0 29.167 0zM1.594 4.49l7.573-2.636v23.344l-7.506 2.77L1.594 4.49zm9.24 20.703V1.865l8.333 2.942v23.328l-8.334-2.942zm10 2.953V4.802l7.505-2.776.067 23.484-7.573 2.636z" fill="#fff"/></svg>