<svg width="30" height="48" viewBox="0 0 30 48" fill="none" xmlns="http://www.w3.org/2000/svg">
<path d="M30 15C30 11.0121 28.4592 7.25075 25.6042 4.39577C22.7946 1.5861 18.9879 0 15 0C11.0121 0 7.25076 1.54079 4.39577 4.39577C1.58611 7.20544 0 11.0121 0 15C0 18.9879 1.54079 22.7492 4.39577 25.6042C6.70695 27.9154 9.69788 29.4109 12.9154 29.864V45.7704C12.9154 46.0876 12.9607 46.4048 13.0967 46.6767C13.2326 46.9486 13.4139 47.1299 13.7311 47.2659C14.0483 47.4018 14.4562 47.4924 15 47.4924C15.5438 47.4924 15.9517 47.4018 16.2689 47.2659C16.5861 47.1299 16.7674 46.9033 16.9033 46.6767C17.0393 46.4048 17.0846 46.1329 17.0846 45.7704V29.8187C20.3021 29.3656 23.2477 27.9154 25.6042 25.5589C28.4139 22.7492 30 18.9879 30 15ZM15 28.1873C11.4653 28.1873 8.1571 26.8278 5.66465 24.3353C3.1722 21.8429 1.81269 18.5347 1.81269 15C1.81269 11.4653 3.1722 8.1571 5.66465 5.66465C8.1571 3.17221 11.4653 1.81269 15 1.81269C18.5347 1.81269 21.8429 3.17221 24.3353 5.66465C26.8278 8.1571 28.1873 11.4653 28.1873 15C28.1873 18.5347 26.8278 21.8429 24.3353 24.3353C21.8429 26.8278 18.5347 28.1873 15 28.1873Z" fill="white"/>
<path opacity="0.33" d="M7.79463 8.15728C7.43209 7.65879 7.06956 7.1603 6.6617 6.75244C2.12998 11.3295 2.12998 18.7615 6.70702 23.3385C6.79765 23.4292 6.84297 23.4745 6.93361 23.5198C8.74629 21.3899 9.65264 18.7162 9.65264 15.408C9.65264 12.3718 9.0182 9.96996 7.79463 8.15728Z" fill="white"/>
</svg>
