<svg width="39" height="39" viewBox="0 0 39 39" fill="none" xmlns="http://www.w3.org/2000/svg">
<path d="M34.1808 4.35417C28.3753 -1.45139 18.9243 -1.45139 13.1188 4.35417C7.80826 9.66469 7.35822 17.9905 11.7686 23.8411L0.562554 35.0022C0.337532 35.2272 0.157515 35.4972 0.0675066 35.7672C-0.0225022 36.0373 -0.0225022 36.3073 0.0675066 36.6223C0.157515 36.9374 0.427541 37.2974 0.787576 37.7024C1.19262 38.1075 1.50765 38.3325 1.86768 38.4225C2.18271 38.5125 2.49774 38.5125 2.72277 38.4225C2.99279 38.3325 3.21781 38.1525 3.48784 37.9274L14.6939 26.7214C17.3492 28.7015 20.4995 29.7366 23.6498 29.7366C27.4752 29.7366 31.2555 28.2965 34.1808 25.3712C39.9864 19.5657 39.9864 10.1597 34.1808 4.35417ZM32.9207 24.1111C27.7902 29.2416 19.5094 29.2416 14.3789 24.1111C9.2484 18.9806 9.2484 10.6998 14.3789 5.56929C16.9441 3.00404 20.2745 1.74392 23.6498 1.74392C27.0251 1.74392 30.3555 3.00404 32.9207 5.56929C38.0062 10.6998 38.0062 19.0256 32.9207 24.1111Z" fill="white"/>
<path d="M23.6499 23.7959C21.2646 23.7959 19.0144 22.8508 17.3492 21.1856C13.8839 17.7203 13.8839 12.0497 17.3492 8.58438C19.0144 6.91921 21.2646 5.97412 23.6499 5.97412C26.0351 5.97412 28.2853 6.91921 29.9505 8.58438C33.4158 12.0497 33.4158 17.7203 29.9505 21.1856C28.2853 22.8508 26.0351 23.7959 23.6499 23.7959ZM23.6499 6.69419C21.4897 6.69419 19.4194 7.54927 17.8893 9.07942C14.694 12.2747 14.694 17.4502 17.8893 20.6005C19.4194 22.1307 21.4897 22.9858 23.6499 22.9858C25.8101 22.9858 27.8803 22.1307 29.4104 20.6005C32.6057 17.4052 32.6057 12.2297 29.4104 9.07942C27.8803 7.54927 25.8101 6.69419 23.6499 6.69419Z" fill="white"/>
</svg>
