<svg width="40" height="40" viewBox="0 0 40 40" fill="none" xmlns="http://www.w3.org/2000/svg">
<path opacity="0.25" d="M20 40C31.0457 40 40 31.0457 40 20C40 8.9543 31.0457 0 20 0C8.9543 0 0 8.9543 0 20C0 31.0457 8.9543 40 20 40Z" fill="#ED1E79"/>
<path opacity="0.25" d="M23.0001 32.5556L20.7779 30.3334C20.3334 29.8889 19.6446 29.8889 19.2001 30.3334C18.7557 30.7778 18.7557 31.4667 19.2001 31.9111L19.5112 32.2222C13.0001 31.9556 7.77789 26.5778 7.77789 20C7.77789 19.3778 7.289 18.8889 6.66678 18.8889C6.04455 18.8889 5.55566 19.3778 5.55566 20C5.55566 27.8223 11.8001 34.2 19.5557 34.4222L19.2223 34.7556C18.7779 35.2 18.7779 35.8889 19.2223 36.3334C19.4446 36.5556 19.7334 36.6667 20.0001 36.6667C20.2668 36.6667 20.5779 36.5556 20.7779 36.3334L23.0001 34.1111C23.4446 33.6889 23.4446 32.9778 23.0001 32.5556Z" fill="#ED1E79"/>
<path opacity="0.25" d="M17.0001 7.44449L19.2223 9.66671C19.6667 10.1112 20.3556 10.1112 20.8001 9.66671C21.2445 9.22226 21.2445 8.53337 20.8001 8.08893L20.489 7.77782C27.0001 8.04449 32.2223 13.4223 32.2223 20C32.2223 20.6223 32.7112 21.1112 33.3334 21.1112C33.9556 21.1112 34.4445 20.6223 34.4445 20C34.4445 12.1778 28.2001 5.80004 20.4445 5.57782L20.7779 5.24449C21.2223 4.80004 21.2223 4.11115 20.7779 3.66671C20.5556 3.44449 20.2667 3.33337 20.0001 3.33337C19.7334 3.33337 19.4223 3.44449 19.2223 3.66671L17.0001 5.88893C16.5556 6.31115 16.5556 7.02226 17.0001 7.44449Z" fill="#ED1E79"/>
<path opacity="0.5" d="M20.0001 22.2223C21.2274 22.2223 22.2223 21.2274 22.2223 20.0001C22.2223 18.7728 21.2274 17.7778 20.0001 17.7778C18.7728 17.7778 17.7778 18.7728 17.7778 20.0001C17.7778 21.2274 18.7728 22.2223 20.0001 22.2223Z" fill="#ED1E79"/>
</svg>
