<svg width="40" height="40" viewBox="0 0 40 40" fill="none" xmlns="http://www.w3.org/2000/svg">
<path opacity="0.25" d="M40 20C40 8.95431 31.0457 3.415e-06 20 3.89783e-06C8.9543 4.38065e-06 -1.35705e-06 8.95431 -8.74228e-07 20C-3.91405e-07 31.0457 8.9543 40 20 40C31.0457 40 40 31.0457 40 20Z" fill="#ED1E79"/>
<path opacity="0.25" d="M34.1339 5.86654C26.3338 -1.93354 13.667 -1.93354 5.84473 5.86654L34.1339 34.1557C41.9562 26.3334 41.9562 13.6666 34.1339 5.86654Z" fill="#ED1E79"/>
<path opacity="0.25" d="M20.0002 19.9999L34.1337 34.1334C41.9338 26.3333 41.9338 13.6665 34.1337 5.84424L20.0002 19.9999Z" fill="#ED1E79"/>
</svg>
