<svg width="40" height="40" viewBox="0 0 40 40" fill="none" xmlns="http://www.w3.org/2000/svg">
<path opacity="0.25" d="M20 0L26.1778 13.1778L40 15.2889L30 25.5333L32.3556 40L20 33.1778L7.64444 40L10 25.5333L0 15.2889L13.8222 13.1778L20 0Z" fill="#ED1E79"/>
<path opacity="0.25" d="M20 8L24.1111 16.4497L33.3334 17.7974L26.6667 24.386L28.2445 33.67L20 29.2847L11.7556 33.67L13.3334 24.386L6.66669 17.7974L15.8889 16.4497L20 8Z" fill="#ED1E79"/>
<path opacity="0.25" d="M20 15L22.0666 19.4L26.6666 20.0889L23.3333 23.5111L24.1111 28.3333L20 26.0667L15.8889 28.3333L16.6666 23.5111L13.3333 20.0889L17.9333 19.4L20 15Z" fill="#ED1E79"/>
</svg>
