<svg width="40" height="40" viewBox="0 0 40 40" fill="none" xmlns="http://www.w3.org/2000/svg">
<path opacity="0.25" d="M28.8889 4.44444L24.4444 8.88889L15.5556 0C6.66667 6.66667 0 13.3333 0 22.2222C0 33.3333 8.95556 40 20 40C31.0444 40 40 33.3333 40 22.2222C40 15.5556 35.3556 9.68889 28.8889 4.44444Z" fill="#ED1E79"/>
<path opacity="0.25" d="M28.1556 11.8446L25.2 14.8001L19.2667 8.88904C13.3333 13.3335 8.88889 17.7779 8.88889 23.7113C8.88889 31.1113 14.8444 35.5557 22.2222 35.5557C29.6 35.5557 35.5556 31.1113 35.5556 23.7113C35.5556 19.2668 32.4667 15.3557 28.1556 11.8446Z" fill="#ED1E79"/>
<path opacity="0.25" d="M27.4 19.2666L25.9111 20.7555L22.9555 17.7777C20 19.9999 17.7778 22.2222 17.7778 25.1777C17.7778 28.8888 20.7555 31.111 24.4444 31.111C28.1333 31.111 31.1111 28.8888 31.1111 25.1777C31.1111 22.9555 29.5555 20.9999 27.4 19.2666Z" fill="#ED1E79"/>
</svg>
