<svg width="40" height="40" viewBox="0 0 40 40" fill="none" xmlns="http://www.w3.org/2000/svg">
<path opacity="0.25" d="M20 40C31.0457 40 40 31.0457 40 20C40 8.9543 31.0457 0 20 0C8.9543 0 0 8.9543 0 20C0 31.0457 8.9543 40 20 40Z" fill="#ED1E79"/>
<path opacity="0.25" d="M20 31.1111C26.1365 31.1111 31.1111 26.1365 31.1111 20C31.1111 13.8635 26.1365 8.88892 20 8.88892C13.8635 8.88892 8.88889 13.8635 8.88889 20C8.88889 26.1365 13.8635 31.1111 20 31.1111Z" fill="#ED1E79"/>
<path opacity="0.25" d="M20 22.2223C21.2273 22.2223 22.2222 21.2274 22.2222 20.0001C22.2222 18.7728 21.2273 17.7778 20 17.7778C18.7727 17.7778 17.7778 18.7728 17.7778 20.0001C17.7778 21.2274 18.7727 22.2223 20 22.2223Z" fill="#ED1E79"/>
</svg>
