<svg width="40" height="40" viewBox="0 0 40 40" fill="none" xmlns="http://www.w3.org/2000/svg">
<path opacity="0.25" d="M40 11.1111C40 4.97778 35.0222 0 28.8889 0C25.2444 0 22.0222 1.75556 20 4.44444C17.9778 1.75556 14.7556 0 11.1111 0C4.97778 0 0 4.97778 0 11.1111C0 24.4444 20 40 20 40C20 40 40 24.4444 40 11.1111Z" fill="#ED1E79"/>
<path opacity="0.25" d="M33.3333 14.0666C33.3333 9.97774 30.0222 6.66663 25.9333 6.66663C23.5111 6.66663 21.3555 7.82218 20 9.62218C18.6444 7.82218 16.4888 6.66663 14.0666 6.66663C9.97774 6.66663 6.66663 9.97774 6.66663 14.0666C6.66663 22.9555 20 33.3333 20 33.3333C20 33.3333 33.3333 22.9555 33.3333 14.0666Z" fill="#ED1E79"/>
<path opacity="0.25" d="M26.6667 17.0445C26.6667 15 25 13.3334 22.9556 13.3334C21.7556 13.3334 20.6667 13.9112 20 14.8223C19.3334 13.9334 18.2445 13.3334 17.0445 13.3334C15 13.3334 13.3334 15 13.3334 17.0445C13.3334 21.4889 20 26.6667 20 26.6667C20 26.6667 26.6667 21.4889 26.6667 17.0445Z" fill="#ED1E79"/>
</svg>
