<svg width="40" height="40" viewBox="0 0 40 40" fill="none" xmlns="http://www.w3.org/2000/svg">
<path opacity="0.25" d="M20 0C8.97778 0 0 7.67093 0 17.1429C0 26.637 8.97778 34.2857 20 34.2857C21.7111 34.2857 23.3778 34.1078 24.9111 33.7743L34.2889 40V29.1273C37.8222 26.0367 40 21.8121 40 17.1206C40 7.67093 31.0222 0 20 0Z" fill="#ED1E79"/>
<path opacity="0.25" d="M20.0001 6.67029C16.2445 6.67029 12.7779 7.89319 10.2001 10.0944C7.91119 12.0288 6.66675 14.5413 6.66675 17.1428C6.66675 19.7442 7.91119 22.2567 10.2001 24.2134C12.7779 26.4146 16.2445 27.6375 20.0001 27.6375C21.2445 27.6375 22.4001 27.5263 23.4667 27.2817L26.2445 26.6592L27.6223 27.5708V26.1033L29.9112 24.1022C32.1112 22.1678 33.3334 19.6997 33.3334 17.1205C33.3334 14.5191 32.089 12.0066 29.8001 10.0499C27.2223 7.89319 23.7556 6.67029 20.0001 6.67029Z" fill="#ED1E79"/>
<path opacity="0.25" d="M25.4666 15.1418C24.111 13.9856 22.1555 13.3408 19.9999 13.3408C17.8444 13.3408 15.8888 13.9856 14.5333 15.1418C13.7777 15.7866 13.3333 16.5204 13.3333 17.1429C13.3333 17.7655 13.7777 18.4992 14.5333 19.144C15.8888 20.3225 17.8444 20.945 19.9999 20.945C22.1555 20.945 24.111 20.3002 25.4666 19.144C26.2221 18.4992 26.6666 17.7655 26.6666 17.1429C26.6666 16.5426 26.2221 15.8089 25.4666 15.1418Z" fill="#ED1E79"/>
</svg>
