<svg width="40" height="40" viewBox="0 0 40 40" fill="none" xmlns="http://www.w3.org/2000/svg">
<path opacity="0.25" d="M40 20L24.4444 40V28.8889C11.1111 28.8889 4.44444 31.1111 4.44444 40H0C0 17.7778 6.66667 11.1111 24.4444 11.1111V0L40 20Z" fill="#ED1E79"/>
<path opacity="0.25" d="M31.5555 20.0001L29.8222 17.7778H27.7778H24.4444C17.1778 17.7778 12.8889 18.9556 10.5778 21.6223C9.97777 22.2889 9.46666 23.1112 9.02222 24.0889C12.7778 22.8001 17.6 22.2223 24.4667 22.2223H27.8H29.8444L31.5555 20.0001Z" fill="#ED1E79"/>
<path opacity="0.25" d="M35.7778 19.9999L27.7778 30.2888V28.8888V25.5555H24.4445C16.4889 25.5555 11.5556 26.3333 7.95561 28.1333C6.2445 28.9999 4.8445 30.0888 3.77783 31.4222C4.4445 25.8444 5.8445 21.9555 8.06672 19.4222C11.0667 15.9777 16.1334 14.4444 24.4445 14.4444H27.7778V11.1111V9.71106L35.7778 19.9999Z" fill="#ED1E79"/>
</svg>
