<svg width="20" height="20" viewBox="0 0 20 20" fill="none" xmlns="http://www.w3.org/2000/svg">
<path d="M15.9429 12.9143C16.7143 11.6571 17.1429 10.1714 17.1429 8.57143C17.1429 3.82857 13.3143 0 8.57143 0C3.82857 0 0 3.82857 0 8.57143C0 13.3143 3.82857 17.1429 8.57143 17.1429C10.1714 17.1429 11.6571 16.7143 12.9143 15.9429L16.9714 20L20 16.9714L15.9429 12.9143ZM8.57143 14.2857C5.42857 14.2857 2.85714 11.7143 2.85714 8.57143C2.85714 5.42857 5.42857 2.85714 8.57143 2.85714C11.7143 2.85714 14.2857 5.42857 14.2857 8.57143C14.2857 11.7143 11.7143 14.2857 8.57143 14.2857Z" fill="#1B1464"/>
</svg>
