<svg width="20" height="20" viewBox="0 0 20 20" fill="none" xmlns="http://www.w3.org/2000/svg">
<path d="M18.1714 10C18.1714 8.94286 18.9714 8.08571 20 7.97143C19.7429 6.65714 19.2286 5.45714 18.5143 4.37143C17.7143 5.02857 16.5143 4.97143 15.7714 4.22857C15.0286 3.48571 14.9714 2.28571 15.6286 1.48571C14.5714 0.771429 13.3429 0.257143 12.0286 0C11.9143 1.02857 11.0571 1.82857 10 1.82857C8.94286 1.82857 8.08571 1.02857 7.97143 0C6.65714 0.257143 5.42857 0.771429 4.37143 1.48571C5.02857 2.28571 4.97143 3.48571 4.22857 4.22857C3.48571 4.97143 2.28571 5.02857 1.48571 4.37143C0.771429 5.42857 0.257143 6.65714 0 7.97143C1.02857 8.08571 1.82857 8.94286 1.82857 10C1.82857 11.0571 1.02857 11.9143 0 12.0286C0.257143 13.3429 0.771429 14.5429 1.48571 15.6286C2.28571 14.9714 3.48571 15.0286 4.22857 15.7714C4.97143 16.5143 5.02857 17.7143 4.37143 18.5143C5.45714 19.2286 6.65714 19.7429 7.97143 20C8.08571 18.9714 8.94286 18.1714 10 18.1714C11.0571 18.1714 11.9143 18.9714 12.0286 20C13.3429 19.7429 14.5429 19.2286 15.6286 18.5143C14.9714 17.7143 15.0286 16.5143 15.7714 15.7714C16.5143 15.0286 17.7143 14.9714 18.5143 15.6286C19.2286 14.5429 19.7429 13.3429 20 12.0286C18.9714 11.9143 18.1714 11.0571 18.1714 10ZM10 14C7.8 14 6 12.2 6 10C6 7.8 7.8 6 10 6C12.2 6 14 7.8 14 10C14 12.2 12.2 14 10 14Z" fill="#1B1464"/>
</svg>
