<svg width="20" height="20" viewBox="0 0 20 20" fill="none" xmlns="http://www.w3.org/2000/svg">
<path d="M10 0C4.48571 0 0 4.48571 0 10C0 15.5143 4.48571 20 10 20C15.5143 20 20 15.5143 20 10C20 4.48571 15.5143 0 10 0ZM10 17.1429C6.05714 17.1429 2.85714 13.9429 2.85714 10C2.85714 6.05714 6.05714 2.85714 10 2.85714C13.9429 2.85714 17.1429 6.05714 17.1429 10C17.1429 13.9429 13.9429 17.1429 10 17.1429Z" fill="#1B1464"/>
<path d="M9.99998 8.57141C9.19998 8.57141 8.57141 9.19998 8.57141 9.99998C8.57141 10.8 9.19998 11.4286 9.99998 11.4286C10.8 11.4286 11.4286 10.8 11.4286 9.99998C11.4286 9.19998 10.8 8.57141 9.99998 8.57141Z" fill="#1B1464"/>
</svg>
