<svg width="20" height="20" viewBox="0 0 20 20" fill="none" xmlns="http://www.w3.org/2000/svg">
<path d="M10 2.85714C13.9429 2.85714 17.1429 5.42857 17.1429 8.57143C17.1429 10 16.4857 11.3429 15.2571 12.4286L14.2857 13.2857V14.5714V14.6571L14.0571 14.4857L13.0571 13.8L11.8857 14.0571C11.2571 14.2286 10.6286 14.2857 10 14.2857C6.05714 14.2857 2.85714 11.7143 2.85714 8.57143C2.85714 5.42857 6.05714 2.85714 10 2.85714ZM10 0C4.48571 0 0 3.82857 0 8.57143C0 13.3143 4.48571 17.1429 10 17.1429C10.8571 17.1429 11.6857 17.0571 12.4571 16.8857L17.1429 20V14.5714C18.9143 13.0286 20 10.9143 20 8.57143C20 3.82857 15.5143 0 10 0Z" fill="#1B1464"/>
</svg>
