<svg width="300" height="53" viewBox="0 0 300 53" fill="none" xmlns="http://www.w3.org/2000/svg">
<path d="M0 1.30426H2.01666L9.07497 24.3205L16.1333 1.30426H17.8869L24.8575 24.3205L31.9158 1.30426H33.9763L25.9097 27.6524H24.0684L16.9662 4.37309L9.90794 27.6524H8.06664L0 1.30426Z" fill="white"/>
<path d="M70.3639 1.30426H80.1403C85.445 1.30426 88.1193 3.71548 88.1193 8.53793C88.1193 10.4669 87.5493 12.089 86.3656 13.3604C85.182 14.6317 83.516 15.377 81.3678 15.6401L88.1193 27.6524H86.0588L79.3512 15.6401H72.3367V27.6524H70.32V1.30426H70.3639ZM79.9649 13.9741C81.8939 13.9741 83.4283 13.4919 84.5243 12.5712C85.6204 11.6506 86.1464 10.2915 86.1464 8.53793C86.1464 6.52127 85.6204 5.11838 84.5243 4.24157C83.4722 3.4086 81.9378 2.9702 79.9649 2.9702H72.3367V13.9303H79.9649V13.9741Z" fill="white"/>
<path d="M94.5199 1.30426H96.5366V14.1933L109.426 1.30426H111.968L98.9478 14.3249L112.801 27.6962H110.215L96.5366 14.4564V27.6962H94.5199V1.30426Z" fill="white"/>
<path d="M171.591 25.7234C169.882 24.0574 169.005 21.6901 169.005 18.6651V1.30426H171.021V18.972C171.021 21.5147 171.767 23.3998 173.214 24.6274C174.66 25.8549 176.677 26.4687 179.176 26.4687C181.675 26.4687 183.691 25.8549 185.138 24.6274C186.629 23.3998 187.33 21.5147 187.33 18.972V1.30426H189.347V18.6651C189.347 21.6901 188.47 24.0574 186.76 25.7234C185.05 27.3893 182.508 28.2223 179.176 28.2223C175.8 28.2223 173.301 27.3893 171.591 25.7234Z" fill="white"/>
<path d="M194.827 1.30426H204.603C209.952 1.30426 212.582 3.71548 212.582 8.53793C212.582 10.4669 212.012 12.089 210.829 13.3604C209.645 14.6317 207.979 15.377 205.831 15.6401L212.582 27.6524H210.522L203.814 15.6401H196.887V27.6524H194.871V1.30426H194.827ZM204.428 13.9741C206.357 13.9741 207.891 13.4919 208.987 12.5712C210.083 11.6506 210.609 10.2915 210.609 8.53793C210.609 6.52127 210.083 5.11838 208.987 4.24157C207.935 3.4086 206.401 2.9702 204.428 2.9702H196.756V13.9303H204.428V13.9741Z" fill="white"/>
<path d="M222.578 26.5125C220.473 25.3726 218.851 23.7505 217.668 21.69C216.484 19.6295 215.914 17.2183 215.914 14.5002C215.914 11.7821 216.484 9.37088 217.668 7.31038C218.851 5.20604 220.473 3.62778 222.578 2.44409C224.682 1.30424 227.006 0.734314 229.636 0.734314C233.275 0.734314 236.256 1.74264 238.667 3.71546V5.73212C236.388 3.62778 233.406 2.57561 229.768 2.57561C227.488 2.57561 225.471 3.05786 223.674 4.06619C221.876 5.03068 220.473 6.43357 219.421 8.23103C218.369 10.0285 217.887 12.1328 217.887 14.544C217.887 16.9553 218.413 19.0596 219.465 20.8571C220.517 22.6545 221.92 24.0574 223.762 25.0219C225.603 25.9864 227.576 26.5125 229.811 26.5125C231.74 26.5125 233.45 26.2494 234.941 25.7234C236.431 25.1973 237.834 24.3643 239.062 23.1368V25.1534C236.826 27.2578 233.713 28.2661 229.724 28.2661C227.006 28.2223 224.638 27.6523 222.578 26.5125Z" fill="white"/>
<path d="M244.63 1.30426H246.646V27.6524H244.63V1.30426Z" fill="white"/>
<path d="M252.345 1.30426H254.231L269.969 24.189V1.30426H271.986V27.6524H270.145L254.362 4.72381V27.6524H252.345V1.30426Z" fill="white"/>
<path d="M283.516 26.5125C281.412 25.3726 279.79 23.7505 278.606 21.69C277.422 19.6295 276.852 17.2183 276.852 14.5002C276.852 11.7821 277.422 9.37088 278.606 7.31038C279.79 5.20604 281.412 3.62778 283.516 2.44409C285.62 1.30424 287.944 0.734314 290.574 0.734314C294.213 0.734314 297.194 1.6988 299.562 3.67162V5.68828C297.37 3.58394 294.432 2.57561 290.706 2.57561C288.426 2.57561 286.409 3.05786 284.612 4.06619C282.815 5.03068 281.412 6.43357 280.359 8.23103C279.307 10.0285 278.825 12.1328 278.825 14.544C278.825 16.9553 279.351 19.0596 280.403 20.9009C281.455 22.6984 282.858 24.1013 284.656 25.0657C286.453 26.0302 288.47 26.5125 290.662 26.5125C292.196 26.5125 293.555 26.3371 294.695 25.9864C295.879 25.6357 296.975 25.0657 297.983 24.3205V15.4209H291.89V13.7111H300V25.1096C297.764 27.2139 294.608 28.2223 290.574 28.2223C287.944 28.2223 285.62 27.6523 283.516 26.5125Z" fill="white"/>
<path d="M61.0259 4.24156C55.3704 -1.41385 46.164 -1.41385 40.5085 4.24156C35.3354 9.41473 34.897 17.5252 39.1933 23.2245L28.2771 34.0969C28.0579 34.3161 27.8825 34.5791 27.7948 34.8422C27.7071 35.1052 27.7071 35.3683 27.7948 35.6751C27.8825 35.982 28.1455 36.3328 28.4963 36.7273C28.8908 37.1219 29.1977 37.3411 29.5484 37.4288C29.8553 37.5164 30.1622 37.5164 30.3814 37.4288C30.6445 37.3411 30.8637 37.1657 31.1267 36.9465L42.043 26.0303C44.6295 27.9592 47.6984 28.9676 50.7672 28.9676C54.4936 28.9676 58.1762 27.5647 61.0259 24.715C66.6813 19.0596 66.6813 9.89698 61.0259 4.24156ZM59.7983 23.4875C54.8005 28.4853 46.7339 28.4853 41.7361 23.4875C36.7383 18.4897 36.7383 10.4231 41.7361 5.42525C44.235 2.92635 47.4792 1.69882 50.7672 1.69882C54.0552 1.69882 57.2994 2.92635 59.7983 5.42525C64.7523 10.4231 64.7523 18.5335 59.7983 23.4875Z" fill="#ED1E79"/>
<path d="M50.7672 23.1806C48.4437 23.1806 46.2517 22.26 44.6296 20.6379C41.2539 17.2621 41.2539 11.7383 44.6296 8.36254C46.2517 6.74044 48.4437 5.81979 50.7672 5.81979C53.0908 5.81979 55.2828 6.74044 56.9049 8.36254C60.2806 11.7383 60.2806 17.2621 56.9049 20.6379C55.2828 22.26 53.0908 23.1806 50.7672 23.1806ZM50.7672 6.52124C48.6629 6.52124 46.6462 7.35421 45.1556 8.84478C42.043 11.9575 42.043 16.9991 45.1556 20.0679C46.6462 21.5585 48.6629 22.3915 50.7672 22.3915C52.8716 22.3915 54.8882 21.5585 56.3788 20.0679C59.4915 16.9553 59.4915 11.9136 56.3788 8.84478C54.8882 7.35421 52.8716 6.52124 50.7672 6.52124Z" fill="#ED1E79"/>
<path d="M131.74 14.9386C133.713 15.6839 135.16 16.3415 136.081 16.8238C136.651 17.1306 137.133 17.4814 137.571 17.8759C137.747 17.2183 137.966 16.5607 138.229 15.9031C138.053 15.7716 137.834 15.6401 137.615 15.5085C136.607 14.9386 135.16 14.281 133.275 13.5796C131.565 12.922 130.25 12.3082 129.285 11.7383C128.321 11.1683 127.663 10.5107 127.225 9.80928C126.787 9.10784 126.567 8.27487 126.567 7.26654C126.567 5.8198 127.137 4.63611 128.277 3.7593C129.417 2.8825 131.039 2.44409 133.1 2.44409C135.379 2.44409 137.571 2.8825 139.763 3.7593V2.00569C138.886 1.56728 137.615 1.21656 136.519 1.0412C135.423 0.821995 134.239 0.734314 132.924 0.734314C131.302 0.734314 129.855 0.997357 128.584 1.56728C127.313 2.09337 126.348 2.8825 125.647 3.84698C124.945 4.85531 124.594 5.99517 124.594 7.31038C124.594 9.15168 125.164 10.6423 126.26 11.7821C127.4 12.922 129.242 14.018 131.74 14.9386Z" fill="white"/>
<path d="M137.659 24.8027C137.527 24.9343 137.352 25.0658 137.177 25.1973C135.993 26.0303 134.239 26.4687 131.784 26.4687C129.022 26.4687 126.611 25.9864 124.419 25.0658V26.9509C125.296 27.3455 126.348 27.6524 127.707 27.9154C129.066 28.1346 130.425 28.2661 131.828 28.2661C134.634 28.2661 136.826 27.74 138.317 26.6879C138.097 26.0303 137.834 25.4165 137.659 24.8027Z" fill="white"/>
<path d="M165.322 21.1639C165.322 17.306 163.832 13.6672 161.07 10.9053C158.352 8.18716 154.669 6.65274 150.811 6.65274C146.953 6.65274 143.314 8.14331 140.552 10.9053C137.834 13.6234 136.3 17.306 136.3 21.1639C136.3 25.0219 137.79 28.6606 140.552 31.4226C142.788 33.6584 145.682 35.1052 148.794 35.5436V50.9316C148.794 51.2385 148.838 51.5453 148.97 51.8084C149.101 52.0714 149.277 52.2468 149.584 52.3783C149.89 52.5098 150.285 52.5975 150.811 52.5975C151.337 52.5975 151.732 52.5098 152.039 52.3783C152.345 52.2468 152.521 52.0276 152.652 51.8084C152.784 51.5453 152.828 51.2823 152.828 50.9316V35.4997C155.94 35.0613 158.79 33.6584 161.07 31.3787C163.788 28.6606 165.322 25.0219 165.322 21.1639ZM150.811 33.9215C147.392 33.9215 144.191 32.6063 141.78 30.195C139.369 27.7838 138.053 24.5835 138.053 21.1639C138.053 17.7444 139.369 14.544 141.78 12.1328C144.191 9.72157 147.392 8.40636 150.811 8.40636C154.231 8.40636 157.431 9.72157 159.842 12.1328C162.253 14.544 163.569 17.7444 163.569 21.1639C163.569 24.5835 162.253 27.7838 159.842 30.195C157.431 32.6063 154.231 33.9215 150.811 33.9215Z" fill="#ED1E79"/>
<path opacity="0.33" d="M143.84 14.5441C143.49 14.0618 143.139 13.5796 142.744 13.185C138.36 17.6129 138.36 24.8027 142.788 29.2306C142.876 29.3183 142.92 29.3621 143.007 29.406C144.761 27.3455 145.638 24.7589 145.638 21.5585C145.638 18.6212 145.024 16.2977 143.84 14.5441Z" fill="#ED1E79"/>
</svg>
