<svg width="30" height="30" viewBox="0 0 30 30" fill="none" xmlns="http://www.w3.org/2000/svg">
<path d="M29.1667 0C29.0625 0 28.9583 0.0208333 28.8542 0.0625L20 3.33333L11.0417 0.171875C10.7031 0.0572917 10.3438 0 9.98958 0C9.64062 0 9.29167 0.0520833 8.95833 0.161458L1.04688 2.91146C0.416667 3.16667 0 3.78125 0 4.46354V29.1667C0 29.6458 0.390625 30 0.833333 30C0.9375 30 1.04167 29.9792 1.14583 29.9375L10 26.6667L18.9583 29.8281C19.6354 30.0521 20.3646 30.0573 21.0417 29.8385L28.9531 27.0833C29.5885 26.8281 30 26.2187 30 25.5365V0.833333C30 0.354167 29.6094 0 29.1667 0ZM1.59375 4.48958L9.16667 1.85417V25.1979L1.66146 27.9688L1.59375 4.48958ZM10.8333 25.1927V1.86458L19.1667 4.80729V28.1354L10.8333 25.1927ZM20.8333 28.1458V4.80208L28.3385 2.02604L28.4062 25.5104L20.8333 28.1458Z" fill="white"/>
</svg>
